0
SECTION
2
HEADER
9
$ACADVER
1
AC1015
9
$INSUNITS
70
4
9
$MEASUREMENT
70
1
0
ENDSEC
0
SECTION
2
TABLES
0
TABLE
2
LTYPE
5
1
100
AcDbSymbolTable
70
1
0
LTYPE
5
2
330
1
100
AcDbSymbolTableRecord
100
AcDbLinetypeTableRecord
2
CONTINUOUS
70
0
3
Solid line
72
65
73
0
40
0
0
ENDTAB
0
TABLE
2
LAYER
5
3
100
AcDbSymbolTable
70
3
0
LAYER
5
4
330
3
100
AcDbSymbolTableRecord
100
AcDbLayerTableRecord
2
0
70
0
62
7
6
CONTINUOUS
0
LAYER
5
5
330
3
100
AcDbSymbolTableRecord
100
AcDbLayerTableRecord
2
BLANK
70
0
62
7
6
CONTINUOUS
0
LAYER
5
6
330
3
100
AcDbSymbolTableRecord
100
AcDbLayerTableRecord
2
MECHANICAL_HOLES
70
0
62
7
6
CONTINUOUS
0
ENDTAB
0
ENDSEC
0
SECTION
2
ENTITIES
0
LWPOLYLINE
5
7
100
AcDbEntity
8
BLANK
100
AcDbPolyline
90
4
70
1
10
0
20
0
10
150
20
0
10
150
20
100
10
0
20
100
0
CIRCLE
5
8
100
AcDbEntity
8
MECHANICAL_HOLES
100
AcDbCircle
10
10
20
10
30
0
40
2
0
CIRCLE
5
9
100
AcDbEntity
8
MECHANICAL_HOLES
100
AcDbCircle
10
140
20
10
30
0
40
2
0
CIRCLE
5
A
100
AcDbEntity
8
MECHANICAL_HOLES
100
AcDbCircle
10
10
20
90
30
0
40
2
0
CIRCLE
5
B
100
AcDbEntity
8
MECHANICAL_HOLES
100
AcDbCircle
10
140
20
90
30
0
40
2
0
ENDSEC
0
EOF
